-4.71342 21.582684 25.903463 1 1 lh.caudalanteriorcingulate
-5.726928 -78.533402 19.513085 1 1 lh.cuneus
-34.190065 -42.942204 -22.141523 1 1 lh.fusiform
-41.722101 -67.882771 34.603887 1 1 lh.inferiorparietal
-51.277 -33.808976 -23.170605 1 1 lh.inferiortemporal
-6.439842 -44.981262 18.685733 1 1 lh.isthmuscingulate
-32.540997 -86.364114 2.203073 1 1 lh.lateraloccipital
-23.037764 -30.250123 -18.589995 1 1 lh.parahippocampal
-6.34877 -27.759045 56.655089 1 1 lh.paracentral
-4.932902 -16.606575 37.293452 1 1 lh.posteriorcingulate
-41.769587 -5.229033 40.554704 1 1 lh.precentral
-7.924857 -58.522186 37.229825 1 1 lh.precuneus
-4.640406 36.373599 -0.240196 1 1 lh.rostralanteriorcingulate
-31.556597 46.860788 17.547123 1 1 lh.rostralmiddlefrontal
-9.898912 29.419559 41.625472 1 1 lh.superiorfrontal
-51.999864 -9.649506 -5.061575 1 1 lh.superiortemporal
-54.544002 -36.414708 33.982595 1 1 lh.supramarginal
-6.951819 66.422812 -8.123894 1 1 lh.frontalpole
-44.68 -21.057241 7.558621 1 1 lh.transversetemporal
-35.920608 -0.348207 -0.633556 1 1 lh.insula
36.399018 12.92854 47.541216 1 1 rh.caudalmiddlefrontal
36.241264 -36.996979 -23.830013 1 1 rh.fusiform
47.603437 -60.486805 32.19901 1 1 rh.inferiorparietal
52.357208 -28.629 -24.922432 1 1 rh.inferiortemporal
23.589789 30.663629 -17.462437 1 1 rh.lateralorbitofrontal
14.397244 -64.903983 -4.633046 1 1 rh.lingual
5.101551 37.170455 -15.502345 1 1 rh.medialorbitofrontal
58.303661 -19.070017 -14.817581 1 1 rh.middletemporal
24.333161 -27.51164 -19.904294 1 1 rh.parahippocampal
7.36493 -24.792032 56.582531 1 1 rh.paracentral
48.348448 17.003903 14.506226 1 1 rh.parsopercularis
43.424985 40.894672 -11.890692 1 1 rh.parsorbitalis
48.314205 32.961672 3.666955 1 1 rh.parstriangularis
47.49519 -17.970442 39.875623 1 1 rh.postcentral
42.616506 -4.099023 40.24816 1 1 rh.precentral
10.022495 -56.587894 36.967223 1 1 rh.precuneus
33.450671 47.802289 16.263317 1 1 rh.rostralmiddlefrontal
12.074983 31.257724 42.131587 1 1 rh.superiorfrontal
25.221495 -60.34342 52.574048 1 1 rh.superiorparietal
55.540124 -29.835839 34.48365 1 1 rh.supramarginal
36.750517 1.974322 -1.819521 1 1 rh.insula
