-12.379336 -66.529938 -4.691128 1 1 lh.lingual
-6.34877 -27.759045 56.655089 1 1 lh.paracentral
-47.214761 18.386686 14.769465 1 1 lh.parsopercularis
-9.898912 29.419559 41.625472 1 1 lh.superiorfrontal
-51.999864 -9.649506 -5.061575 1 1 lh.superiortemporal
47.603437 -60.486805 32.19901 1 1 rh.inferiorparietal
36.301903 -82.304078 1.048544 1 1 rh.lateraloccipital
23.589789 30.663629 -17.462437 1 1 rh.lateralorbitofrontal
48.348448 17.003903 14.506226 1 1 rh.parsopercularis
12.074983 31.257724 42.131587 1 1 rh.superiorfrontal
